<?xml version="1.0" encoding="utf-8"?>
<!-- Generator: Adobe Illustrator 22.1.0, SVG Export Plug-In . SVG Version: 6.00 Build 0)  -->
<svg version="1.1" id="Layer_1" xmlns="http://www.w3.org/2000/svg" xmlns:xlink="http://www.w3.org/1999/xlink" x="0px" y="0px"
	 viewBox="0 0 28 28" style="enable-background:new 0 0 28 28;" xml:space="preserve">
<style type="text/css">
	.st0{fill:#FFFFFF;}
	.st1{fill:none;stroke:#FFFFFF;stroke-width:1.5;}
</style>
<path class="st0" d="M13.3,17.2c0-0.7,0.1-1.3,0.3-1.7c0.2-0.4,0.5-0.9,0.9-1.4l1.2-1.3c0.5-0.6,0.8-1.2,0.8-1.9
	c0-0.6-0.2-1.2-0.5-1.5c-0.3-0.4-0.8-0.6-1.5-0.6c-0.6,0-1.1,0.2-1.5,0.5c-0.4,0.3-0.6,0.8-0.6,1.3h-1.7c0-1,0.4-1.8,1.1-2.4
	c0.7-0.6,1.6-0.9,2.7-0.9c1.2,0,2.1,0.3,2.7,0.9c0.7,0.6,1,1.5,1,2.6c0,1.1-0.5,2.1-1.5,3.2l-1,1c-0.5,0.5-0.7,1.2-0.7,2.2H13.3z
	 M13.2,20.1c0-0.3,0.1-0.5,0.3-0.7c0.2-0.2,0.4-0.3,0.8-0.3c0.3,0,0.6,0.1,0.8,0.3c0.2,0.2,0.3,0.4,0.3,0.7c0,0.3-0.1,0.5-0.3,0.7
	c-0.2,0.2-0.4,0.3-0.8,0.3c-0.3,0-0.6-0.1-0.8-0.3C13.3,20.6,13.2,20.4,13.2,20.1z"/>
<circle class="st1" cx="14" cy="14" r="13.2"/>
</svg>
