<svg width="9" height="15" viewBox="0 0 9 15" xmlns="http://www.w3.org/2000/svg" id="question">
<path d="M3.32178 10.1963C3.33415 9.46029 3.41764 8.87891 3.57227 8.45215C3.72689 8.02539 4.04232 7.55225 4.51855 7.03271L5.73389 5.78027C6.25342 5.19271 6.51318 4.56185 6.51318 3.8877C6.51318 3.23828 6.3431 2.73112 6.00293 2.36621C5.66276 1.99512 5.16797 1.80957 4.51855 1.80957C3.8877 1.80957 3.38053 1.97656 2.99707 2.31055C2.61361 2.64453 2.42188 3.09294 2.42188 3.65576H0.705566C0.717936 2.65381 1.07357 1.84668 1.77246 1.23438C2.47754 0.615885 3.3929 0.306641 4.51855 0.306641C5.6875 0.306641 6.59668 0.62207 7.24609 1.25293C7.90169 1.8776 8.22949 2.7373 8.22949 3.83203C8.22949 4.91439 7.72852 5.98128 6.72656 7.03271L5.71533 8.03467C5.26383 8.53564 5.03809 9.25618 5.03809 10.1963H3.32178ZM3.24756 13.1372C3.24756 12.8589 3.33105 12.627 3.49805 12.4414C3.67122 12.2497 3.9248 12.1538 4.25879 12.1538C4.59277 12.1538 4.84635 12.2497 5.01953 12.4414C5.19271 12.627 5.2793 12.8589 5.2793 13.1372C5.2793 13.4155 5.19271 13.6475 5.01953 13.833C4.84635 14.0124 4.59277 14.1021 4.25879 14.1021C3.9248 14.1021 3.67122 14.0124 3.49805 13.833C3.33105 13.6475 3.24756 13.4155 3.24756 13.1372Z"/>
</svg>
